<?xml version="1.0" encoding="UTF-8"?>
<!DOCTYPE svg PUBLIC "-//W3C//DTD SVG 1.1//EN" "http://www.w3.org/Graphics/SVG/1.1/DTD/svg11.dtd">
<!-- Creator: CorelDRAW 2020 (64-Bit Evaluation Version) -->
<svg xmlns="http://www.w3.org/2000/svg" xml:space="preserve" width="200mm" height="200mm" version="1.1" style="shape-rendering:geometricPrecision; text-rendering:geometricPrecision; image-rendering:optimizeQuality; fill-rule:evenodd; clip-rule:evenodd"
viewBox="0 0 20000 20000"
 xmlns:xlink="http://www.w3.org/1999/xlink"
 xmlns:xodm="http://www.corel.com/coreldraw/odm/2003">
 <defs>
  <style type="text/css">
   <![CDATA[
    .fil1 {fill:black}
    .fil2 {fill:white}
    .fil0 {fill:white}
   ]]>
  </style>
 </defs>
 <g id="Layer_x0020_1">
  <metadata id="CorelCorpID_0Corel-Layer"/>
  <path class="fil0" d="M-33534.71 4376.59l2109.43 0 0 134.53 -2109.43 0 0 -134.53zm1011.67 -1200.01c82.31,6.85 3.79,6.85 86.1,0l0 1103.14 -86.1 0 0 -1103.14zm-1194.63 236.77c-58.68,0 -139.91,-4.49 -139.91,69.96 0,46.77 50.22,60.11 84.31,77.13 71.85,35.86 240.29,143.7 286.99,213.45 -17.62,-4.1 -23.58,-7.66 -39.87,-13.93 -59.25,-22.82 -331.43,-70.7 -331.43,30.08 0,90.08 117.39,48.32 267.76,200.4 79.9,80.8 146.53,173.52 173.5,289.28 -93.49,0 -215.25,-21.4 -215.25,107.63 0,75.72 -17.9,215.25 91.48,215.25l2120.19 0c109.38,0 91.49,-139.53 91.49,-215.25 0,-129.03 -121.77,-107.63 -215.25,-107.63 26.25,-112.66 93.11,-207.97 170.83,-286.57 151.67,-153.4 270.43,-114.63 270.43,-203.11 0,-74.97 -120.87,-59.2 -177.59,-59.2 -36.23,0 -75.59,8.14 -103.43,14.95 -18.04,4.42 -28.26,7.52 -46.01,13.18 -14.75,4.71 -25.76,10.61 -44.28,14.92 10.51,-15.69 23.81,-28.55 39.26,-41.46 77.26,-64.54 152.44,-124.49 244.15,-170.2 43.57,-21.72 87.9,-34.52 87.9,-89.69 0,-43.76 -46.46,-59.19 -91.48,-59.19 -221.21,0 -380.14,63.56 -520.3,146.97 -52.7,31.36 -96.72,66.78 -143.89,103.65 -19.53,15.27 -28.38,26.41 -46.13,39.97 -54.59,41.68 -139.16,161.25 -161.44,177.58 7.77,-93.33 140.27,-411.94 176.81,-501.23 14.47,-35.38 68.29,-126.04 70.73,-155.28 90.96,0 153.47,-37.71 200.49,-84.71 49.3,-49.26 75.17,-116.85 108.03,-182.56 33.35,-66.7 63.51,-127.01 96.86,-193.72 57.12,-114.24 111.28,-209.8 58.19,-336.3 -23.36,-55.68 -8.32,-49.72 24.4,-108.46 27.13,-48.69 44.76,-99.92 44.76,-159.73 0,-192.92 -169.02,-135.96 -243,-43.9 -36.34,45.22 -58.4,98.02 -90.63,146.14 -177.72,0 -231.39,139.91 -299.55,276.24 -33.36,66.71 -63.51,127.02 -96.87,193.72 -62.33,124.68 -107.4,200.9 -47.85,335.49 12.79,28.91 -18.59,66.28 -32.93,94.94l-90.94 205.03c-29.07,69.23 -55.53,137.99 -79.63,210.96l-54.06 166.56c-3.45,12.13 -5.54,17.78 -9,28.67l-5.27 16.26c-0.45,1.16 -1.15,2.77 -1.57,3.8l-3.41 -654.53c40.95,-10.94 87.61,-72.65 105.97,-109.28 26.63,-53.18 33.94,-109.31 33.94,-186.69l0 -339.01c0,-73.44 -7.23,-134.65 -32.12,-183.13 -24.5,-47.74 -60.64,-87.89 -107.79,-112.84 0,-90.16 -0.57,-148.61 -23.47,-218.68 -24.86,-76.05 -42.11,-141.86 -127.2,-141.86 -59.33,0 -87.89,88.06 -104.36,137.8 -23.96,72.38 -24.79,129.37 -24.79,222.74 -111.11,58.79 -139.91,168.47 -139.91,295.97l0 339.01c0,75.7 7.11,132.2 32.15,183.1 18.54,37.67 65.03,101.46 107.76,112.87l0 661.89c-0.72,-1.14 -1.5,-4.41 -1.74,-3.65 -3.46,10.9 -2.73,-6.14 -3.24,-7.51l-47.65 -151.47c-6.58,-22.63 -11.81,-33.05 -19.38,-55.95 -52.8,-159.74 -117.98,-314.7 -193.49,-463.05 -30.05,-59.04 -5.57,-45.86 8.51,-102.71 27.57,-111.25 -23.08,-195.54 -65.88,-281.14 -38.31,-76.61 -155.1,-332.15 -200.38,-380.79 -48.62,-52.22 -104.17,-92.76 -203.21,-92.76 -5.79,-24.82 -68.38,-125.17 -85.23,-146.16 -59.96,-74.74 -243.03,-176.74 -243.03,70.83 0,31.75 12.48,67.18 22.13,90.87 37.64,92.4 76.89,84.27 47.94,145.86 -16.21,34.5 -21.64,85.57 -21.64,129.19 0,75.37 49.4,152.61 77.13,208.07 42.68,85.35 147.77,321.21 203.98,377.19 48.14,47.95 109.91,87.39 203.2,87.39l139.11 318.29 86.23 252.79c8.38,26.2 12.09,66.4 27.58,90.81 -7.94,11.11 -7.6,-3.63 -38.9,-41.82 -87.19,-106.37 -184.87,-194.77 -299.03,-271.38 -109.51,-73.5 -310.27,-160.35 -490.78,-160.35zm2077.15 866.37l-209.87 0c12.32,-52.89 154.04,-241 203.68,-280.62 46.73,-37.29 83.92,-72.04 140.64,-101.51 44.52,-23.13 122.28,-59.45 183.04,-64.5l-103.6 84.74c-72.28,72.71 -114.25,118.66 -163.75,218.32 -13.31,26.82 -49.43,111.46 -50.14,143.57zm-1996.43 -446.63c76.64,6.37 191.45,62.42 252.16,108.37 11.41,8.64 22.86,16.34 33.88,25.32 64.14,52.25 47.89,43.93 91.95,91.01 36.02,38.5 138.35,174.63 149.37,221.93l-209.87 0c-1.47,-65.91 -80.21,-203.85 -122.18,-259.88 -30.55,-40.79 -53.88,-64.05 -89.03,-99.31 -19.56,-19.63 -29.9,-28.12 -51.22,-45.64l-39.96 -30c-0.92,-0.66 -2.26,-1.55 -3.16,-2.22l-11.94 -9.58zm1678.93 446.63l-220.62 0c11.7,-50.25 115.22,-229.6 140.97,-267.99 72.33,-107.83 162.39,-214.3 264.83,-294.82l91.53 -64.52c23.72,-14.53 41.63,-22.71 65.35,-36.89 65,-38.83 216.21,-92.18 309.07,-99.91l-197.52 152.27 -84.65 92.92c-64.79,83.41 -92.31,142.81 -152.36,202.8 -108.13,108.01 -148.58,187.6 -216.6,316.14zm-1695.07 -764.13c40.97,0 134.78,25.97 167.57,36.91 117.1,39.08 232.77,106.53 325.91,185.31 10.22,8.64 14.48,15.13 24.7,23.73l53.68 48.57c12.13,12.6 13.27,17.35 24.15,29.66 89.8,101.64 146.72,176.33 209.37,301.84l66.37 138.11 -220.63 0c-47.16,-89.12 -65.02,-133.53 -131.42,-218.36 -27.34,-34.93 -51.64,-64.31 -82.48,-95.09 -71.02,-70.9 -78.76,-108.89 -152.71,-202.45 -15.39,-19.46 -25.82,-27.47 -40.77,-45.33 -49.08,-58.61 -126.55,-123.29 -189.91,-165.25l-53.83 -37.65zm1372.2 764.13l-59.19 0c11.11,-133.54 97.97,-477.38 136.49,-595.35 30.94,-94.74 62.14,-178.16 97.94,-267.98l115.35 -255.95c23.45,15.7 42.72,35.45 75.33,43.04 -1.42,17.12 -93.96,213.24 -109.17,251.37 -62.15,155.83 -91.11,246.9 -135.25,402.87l-66.87 293.67c-13.15,40.93 -44.8,86.13 -54.63,128.33zm-764.13 -1076.24c32.62,-7.59 51.88,-27.34 75.34,-43.04 10.36,21.6 17.27,39.95 28.7,62.78 138.68,276.91 233.19,589.92 293.67,895.57 9.51,48.08 23.27,111.23 27.41,160.93l-59.2 0c-3.8,-16.31 -17.33,-43.62 -25.07,-61.03 -46.65,-104.95 -20.94,-39.54 -43.75,-139.2 -5.81,-25.4 -10.86,-52.63 -16.2,-75.28 -11.93,-50.58 -21.06,-93.62 -35.27,-142.31l-86.23 -274.31c-8.6,-26.25 -15.84,-43.72 -24.92,-66.56l-78.81 -190.25c-10.73,-22.17 -18.62,-42.39 -28.68,-62.8 -10.44,-21.19 -23.46,-36.99 -26.99,-64.5zm382.07 -306.72l0 -452.03c0,-98.37 83.43,-182.96 182.96,-182.96 98.98,0 182.96,84.52 182.96,182.96l0 452.03c0,249.28 -365.92,250.96 -365.92,0zm-871.76 -355.16c0,-188.68 233.37,-260.59 338.09,-101.32l81.65 160.51c26.45,52.92 51.7,103.41 78.92,157.85 41.3,82.6 102.8,171.63 55.81,267.47 -54.78,111.71 -184.54,134.1 -273.22,68.32 -40.47,-30.01 -46.5,-51.05 -69.59,-97.22l-166.74 -333.72c-18.02,-35.39 -44.92,-72.34 -44.92,-121.89zm1732.75 586.55c-77.98,0 -141.67,-27.55 -174.22,-94.85 -50.4,-104.22 3.15,-176.47 50.45,-271.07 26.91,-53.82 53.81,-107.63 80.72,-161.44l81.6 -160.56c105.18,-161.76 338.13,-76.8 338.13,95.99 0,66.54 -107.55,252.77 -148.88,335.42 -56.36,112.73 -99.83,256.51 -227.8,256.51zm365.92 -807.18c-22.77,-15.25 -46.36,-40.19 -80.72,-43.05 50.6,-95.63 53.95,-108.04 134.53,-150.68 0,86.04 5.65,78.63 -32.22,150.74 -8.12,15.47 -17.14,23.88 -21.59,42.99zm-2141.72 -193.73c80.57,42.64 83.4,54.04 134.53,150.68 -29.31,2.44 -60.59,29.57 -80.72,43.05l-41.35 -82.41c-17.59,-36.54 -12.46,-61.43 -12.46,-111.32zm1054.72 43.05c0,-152.54 12.37,-106.64 37.67,-215.24l10.76 0c25.3,108.6 37.67,62.7 37.67,215.24 -21.24,0 -30.9,-3.8 -43.05,-3.8 -12.15,0 -21.81,3.8 -43.05,3.8z"/>
  <path class="fil1" d="M8357.63 12012.91c0,711.23 207.66,1329.55 464.86,1889.22 56.37,122.67 127.42,234.08 195.83,349.08 169,284 543.93,747.88 908.68,747.88 209.2,0 337.06,-16.97 523.74,-151.98 143.46,-103.76 179.06,-153.57 277.9,-267 173.71,-199.4 300.85,-413.51 426.43,-663.43 208.38,-414.71 472.09,-1216.7 472.09,-1707.58 0,-318.88 4.03,-483.67 -106.03,-787.64 -28.09,-77.58 -58.48,-158.08 -97.03,-229.95 -46.54,-86.78 -78.62,-144.75 -145.68,-203.04 -88.44,59.22 -493.7,697.48 -1286.02,697.48 -275.59,0 -587,-111.22 -758.89,-221.95 -364.77,-235.01 -432.36,-412.07 -527.13,-475.53 -220.89,191.99 -348.75,739.43 -348.75,1024.44zm3356.73 -2419.45c0,239.9 -42.19,438.96 -87.2,632.11 237.67,0 1094.35,-55.86 1173.64,-20.14l705.94 538.22c138.18,114.22 186.03,178.03 430,180.31 210.21,1.98 423.08,-0.55 633.52,-1.39 210.95,-0.87 980.35,147.53 980.35,-239.27 0,-232.76 -62.05,-348.17 -346.4,-372.87l-1180.42 -40.24c-101.73,-2.4 -82.66,11.45 -210.23,-94.92 -63.31,-52.8 -104.15,-82.9 -171.76,-133.4 -984.92,-735.89 -326.67,-448.41 -1927.44,-448.41zm-7280.17 980.85c0,184.93 38.4,365.17 347.71,371.58 286.59,5.95 448.64,-23.34 610.6,-23.57 203.67,-0.28 407.89,0.29 611.57,1.26 337.07,1.6 345.87,-86.78 634.76,-302.51 842.19,-628.91 254.12,-395.5 1718.8,-395.5 -45,-193.15 -87.2,-392.21 -87.2,-632.11 -388.81,0 -776.2,-52.45 -1178.41,-44.98 -211.68,3.94 -573.27,362.17 -736.7,483.94l-256.59 201.14c-68.33,46.86 -3.52,30.73 -115.92,36.65 -314.81,16.58 -949.16,13.82 -1182.16,38.47 -161.42,17.06 -366.46,63.54 -366.46,265.63zm7737.9 1569.39c0,49.92 -7.38,25.35 -21.8,87.18 116.43,77.97 269.66,122.82 392.2,196.34 156.06,93.59 109.13,204.03 109.13,501.17 0,203.44 0.26,406.88 0,610.32 -0.48,350.37 -9.65,254.9 139.67,470.63l754 1076.96c111.1,169.17 160.62,261.56 392.36,261.56 99.92,0 445.85,-164.03 183.26,-553.81l-575.76 -819.25c-316.25,-448.3 -261.42,-280.96 -261.42,-806.64 0,-232.5 -0.06,-465 0,-697.5 0.15,-526.14 14.55,-374.26 -922.47,-843.08 -91.17,-45.61 -170.36,-71.43 -254.56,-115.99 2.34,104.67 35.87,195.18 42.89,305.85 8.33,130.88 22.5,182.88 22.5,326.26zm-6408.29 2877.2c0,177.76 139.95,326.96 326.94,326.96 196.97,0 255.13,-125.46 340.01,-248.53l755.98 -1074.97c32.54,-43.32 106.14,-140.26 124.95,-180.2 34,-72.1 21.79,-178.66 21.51,-283.64 -0.5,-203.42 -0.02,-406.91 -0.02,-610.33 0,-502.43 -45.84,-455.6 304.9,-610.6 73.43,-32.43 132.99,-66.21 196.44,-108.71 0,-99.73 -19.72,-98.9 -17.48,-172.33l61.07 -546.96 -944.94 450.08c-242.49,114.36 -232.54,136.02 -232.12,465.38l1.31 1069.36c-3.69,182.08 -251.57,477.48 -387.5,658.74 -94.75,126.34 -551.05,751.09 -551.05,865.75zm-152.59 -9132.91c0,242.18 274.86,349.27 540.5,527.53 79.61,53.42 147.22,90.32 226.82,143.74 148.3,99.52 285.02,185.66 436.5,282.82 179.48,115.12 125.79,258.8 125.79,615.28 0,239.75 0.02,479.53 0,719.29 0,312.93 -60.27,462.79 204.56,536.55l885.06 204.79c78.37,19.2 227.89,58.69 305.39,65.15 -24.04,-35.9 -41.15,-64.79 -71.98,-102.39 -110.31,-134.52 -208.61,-300.4 -241.78,-477.53 -44.9,-239.75 -13.49,-123.79 -327.69,-217.23 -176.37,-52.45 -121.43,-278.2 -121.43,-597.84 0,-239.74 -0.97,-479.68 0.06,-719.37 1.56,-361.23 -35.05,-319.33 -257.45,-461.86l-1085.28 -702.06c-169.04,-113.5 -154.16,-122.04 -335.71,-122.04 -145.66,0 -283.36,155.02 -283.36,305.17zm6037.76 3095.15l1067.86 -239.95c122.69,-29.42 235.24,-35.41 297.83,-138.11 102.68,-168.47 51.1,-1369.62 51.1,-1692.65l1046.27 -675.7c131.99,-88.02 261.56,-151.82 261.56,-370.55 0,-208.77 -190.09,-283.36 -370.55,-283.36 -91.18,0 -372.21,205.15 -457.51,261.79l-876.53 562.07c-209.81,140.69 -259.3,117.4 -257.28,462.01l1.06 1069.13c1.05,150.55 0.59,208.27 -122.21,248.34 -329.79,107.61 -288.64,-16.73 -324.7,198.4 -10.74,64 -21.49,98.5 -42.33,153.86 -83.61,222.02 -162.57,277.46 -274.57,444.72zm-2833.61 435.94c0,482.55 31.84,828.74 326.37,1243.02 495.9,697.57 1366.6,626.4 1795.08,-146.03 234.06,-421.92 321.83,-1184.17 189.04,-1184.17 -95.56,0 -169.66,40.62 -244.1,61.07 -1075.27,295.45 -1916.83,-61.07 -2000.99,-61.07 -26.53,0 -65.4,45.09 -65.4,87.18zm-283.37 -3509.31c0,516.08 261.21,730.66 414.16,959.07 -225.05,425.31 -414.16,827.24 -414.16,1329.61 0,293.13 292.76,518.11 501.17,610.47 579.48,256.82 1753.75,265.15 2229.34,-212.25 322.27,-323.5 179.78,-788.78 34.61,-1179.8 -97.16,-261.71 -138.77,-321.81 -258.47,-548.03 70.46,-105.19 151.02,-142.47 282.21,-393.49 415.61,-795.21 -244.06,-1808.01 -739.93,-1808.01 -141.76,0 -283.37,121.62 -283.37,348.76 0,253.99 501.34,327.93 501.34,828.28 0,439.1 -75.14,292.94 -130.79,501.34 -216.48,-144.97 -548.35,-530.66 -1081.21,-209.35 -89.42,53.92 -183.05,164.28 -270.19,187.54 -173.77,-328.39 -205.3,-624.16 61.47,-941.16 151.92,-180.52 287.27,-96.5 287.27,-432.04 0,-165.61 -193.51,-300.35 -358.69,-272.36 -356.72,60.44 -774.76,694.47 -774.76,1231.42z"/>
  <path class="fil2" d="M-33857.58 19752.5c0,23.61 13.76,41.98 24.61,57.91 167.29,245.73 689.33,314.2 954.77,314.2 192.92,0 294.79,3.64 492.74,-24.61 162.15,-23.14 256.32,-46.37 399.01,-104.7 64.09,-26.2 156.31,-83.94 204.79,-132.99 19.51,-19.75 65.8,-74.92 65.8,-104.26 0,-122.06 -69.47,-334.61 -127.41,-435 -42.52,-73.67 -73.1,-92.05 -143.35,-135.3 -22.94,-14.12 -406.7,-237.78 -440.99,-250.73 -40.81,-15.41 -77.13,43.69 -178.36,85.62 -32.1,13.3 -79.98,19.72 -98.86,42.38 -9.19,11.03 -74.84,189.1 -76.51,209.84 -19.08,-14.44 -67.59,-174.12 -80.33,-200.35 -17.71,-36.49 -39.3,-26.78 -89.69,-46.28 -219.11,-84.81 -100.81,-139.12 -271.17,-47.66l-181.99 100.97c-28.86,18.11 -57.01,31.84 -86.1,49.99l-88.84 52.71c-70.54,43.43 -102.42,58.98 -145.35,133.23 -57.02,98.65 -85.01,201.61 -111.31,312.77 -6.69,28.28 -21.46,91.49 -21.46,122.26zm1495.97 -2354.88c40.65,9.77 108.95,64.97 142.26,92 41.57,33.73 17.66,30.93 89.15,30.17 281.59,-3 600.83,110.96 774.88,349.91 143,196.32 141.35,430.73 0.84,628.47l-63.97 78.39c-42.16,44.93 -29.79,22.13 -40.01,97.55l-36.77 250.85c-5.81,35.21 -16.15,90.38 -16.15,127.74l-327.02 -229.36c-14.69,-9.08 -14.65,-7.64 -37.91,-3.51 -175.78,31.16 -224.69,33.44 -399.65,16.38 -37.67,-3.67 -39.78,-1.44 -57.67,17.65 -13.19,14.07 -28.06,22.84 -33.36,43.33l93.21 48.2c113.33,65.47 69.67,51.77 208.14,51.77l152.51 -15.23c46.67,-8.43 39.29,2.88 109.01,50.78l274.33 194.5c38.73,29.15 92.1,68.68 129.51,12.35 19.78,-29.8 35.21,-181.07 41.19,-224.07 13.76,-98.76 32.56,-210.6 45.09,-308.92 7.1,-55.67 5.63,-22.02 66.24,-103.8 13.6,-18.34 23.5,-29.63 36.7,-50.99 68.24,-110.33 104.17,-229.23 108.66,-347.31l0 -50.35c-6.23,-164.57 -73.78,-324.89 -200.45,-455.2 -35.89,-36.92 -72.26,-73.32 -114.88,-103.59 -108.63,-77.13 -156.76,-105.3 -282.58,-152.67 -200.21,-75.39 -405.45,-86.5 -616.77,-60.18 -19.68,2.45 -34,0.32 -44.53,15.14zm-1291.48 722.01l0 399.89c0,114.5 145.86,88.86 220.62,88.86 42.08,0 86.11,-36.85 86.11,-77.75l0 -416.55c0,-22.88 -13.62,-39.11 -25.86,-51.45 -19.01,-19.16 -15.51,-13.47 -11.52,-53.43 3.87,-38.79 14.34,-93.91 24.68,-130.38 76.62,-269.98 263.51,-364.57 572.34,-364.57 121.54,0 250.23,15.68 353.44,68.42 53.93,27.56 77.41,50.93 118.87,93.92 80.09,83.06 121.03,260.38 130.39,376.4 -17.18,4.73 -20.07,9.56 -28.96,25.66 -6.5,11.79 -14.1,26.06 -14.1,40.98l0 405.44c0,30.04 24.11,68.03 64.58,77.76 -39.82,35.72 -117.63,51.61 -167.5,60.38 -108.9,19.16 -190.49,17.37 -300.66,17.37 -45.02,0 24.19,-44.43 -156.06,-44.43 -158.99,0 -114.92,161.07 -37.67,161.07l123.77 0c36.79,0 46.21,-33.33 64.57,-33.33 109.06,0 229.71,5.08 340.15,-21.04 80.68,-19.09 67.53,-14.85 143.47,-46.32 23.54,-9.76 35.3,-20.69 56.75,-35.85 22.19,-15.69 34.12,-28.77 46.18,-52.3 37.25,0 65.21,3.01 89.42,-13.24 16.91,-11.34 39.73,-38.5 39.73,-64.51l0 -416.55c0,-26.02 -22.82,-53.17 -39.73,-64.52 -25.39,-17.04 -55.92,-13.23 -94.8,-13.23 -1.77,-21.94 -7.91,-50 -10.3,-72.68l-29.27 -141.97c-25.99,-82.17 -60.55,-165.95 -117.82,-228.29 -55.26,-60.13 -62.56,-68.79 -139.55,-117.01 -124.4,-77.92 -300.04,-95.42 -456.42,-95.42 -381.49,0 -605.81,159.87 -683.42,499.85 -5.84,25.56 -12.9,56.55 -15.75,83.72 -6.97,66.32 -0.63,69.59 -26.79,72.32 -46.35,4.82 -47.31,-5.92 -81.27,16.09 -15.92,10.31 -37.62,41.44 -37.62,66.69zm376.68 -5.55l0 416.55c0,43.03 -30.5,59.68 -13.09,96.36 47.68,100.48 141.15,209.29 231.46,272.53 22.77,15.95 55.19,35.15 77.9,47.34 20.72,11.11 63.08,29.53 87.94,36.98 117.56,35.25 195.56,17.33 302.86,-38.44 39.29,-20.42 126.08,-77.03 147.02,-109.3 -48.51,0 -97.13,-0.43 -145.6,-0.32 -58.36,0.13 -54.66,33.64 -112.7,33.64 -68.41,0 -126.77,8.32 -179.36,-14.82 -27.04,-11.91 -57.31,-44.65 -69.9,-72.27 -18.07,-39.63 -16.99,-81.32 -1.69,-121.93 6.42,-17.07 16.22,-31.01 27.03,-44.31 50.35,-61.96 143.4,-46.59 229.3,-46.59 45.59,0 78.85,38.88 91.48,38.88 127.1,0 192.88,2.19 317.49,-27.77 -4.73,-20.97 -10.76,-34.74 -10.76,-61.09 0,-76.22 -10.12,-399.31 10.69,-449.95 6.38,-15.53 18.91,-30.43 23.51,-42.76 17.45,-46.69 -42.87,-226.51 -97.93,-296.83 -134.74,-172.08 -519.62,-166.17 -679.58,-110.93 -137.11,47.34 -215.46,131.28 -253.38,282.77 -3.55,14.16 -20.97,97.21 -19.61,112.03 1.93,21.05 36.92,47.83 36.92,100.23z"/>
 </g>
</svg>
