<?xml version="1.0" encoding="UTF-8"?>
<!DOCTYPE svg PUBLIC "-//W3C//DTD SVG 1.1//EN" "http://www.w3.org/Graphics/SVG/1.1/DTD/svg11.dtd">
<!-- Creator: CorelDRAW 2020 (64-Bit Evaluation Version) -->
<svg xmlns="http://www.w3.org/2000/svg" xml:space="preserve" width="200mm" height="200mm" version="1.1" style="shape-rendering:geometricPrecision; text-rendering:geometricPrecision; image-rendering:optimizeQuality; fill-rule:evenodd; clip-rule:evenodd"
viewBox="0 0 20000 20000"
 xmlns:xlink="http://www.w3.org/1999/xlink"
 xmlns:xodm="http://www.corel.com/coreldraw/odm/2003">
 <defs>
  <style type="text/css">
   <![CDATA[
    .fil0 {fill:black}
   ]]>
  </style>
 </defs>
 <g id="Layer_x0020_1">
  <metadata id="CorelCorpID_0Corel-Layer"/>
  <path class="fil0" d="M5829.18 14945.89l8680.75 0 0 553.62 -8680.75 0 0 -553.62zm4163.22 -4938.29c338.73,28.18 15.59,28.18 354.32,0l0 4539.68 -354.32 0 0 -4539.68zm-4916.14 974.37c-241.48,0 -575.77,-18.48 -575.77,287.88 0,192.46 206.66,247.38 346.94,317.41 295.69,147.6 988.84,591.37 1181.06,878.41 -72.52,-16.89 -97.07,-31.54 -164.1,-57.34 -243.84,-93.89 -1363.9,-290.93 -1363.9,123.77 0,370.7 483.1,198.87 1101.9,824.71 328.79,332.51 602.99,714.06 713.97,1190.47 -384.71,0 -885.79,-88.1 -885.79,442.89 0,311.62 -73.65,885.8 376.47,885.8l8725.04 0c450.11,0 376.46,-574.18 376.46,-885.8 0,-530.99 -501.08,-442.89 -885.79,-442.89 108.02,-463.66 383.18,-855.84 703,-1179.31 624.17,-631.3 1112.87,-471.73 1112.87,-835.87 0,-308.51 -497.37,-243.59 -730.78,-243.59 -149.1,0 -311.11,33.49 -425.66,61.52 -74.23,18.17 -116.29,30.92 -189.35,54.24 -60.71,19.38 -105.99,43.65 -182.2,61.4 43.26,-64.59 97.96,-117.51 161.55,-170.63 317.96,-265.59 627.32,-512.3 1004.74,-700.4 179.28,-89.37 361.7,-142.05 361.7,-369.08 0,-180.11 -191.19,-243.59 -376.46,-243.59 -910.29,0 -1564.32,261.54 -2141.14,604.81 -216.84,129.03 -398.01,274.83 -592.12,426.55 -80.37,62.82 -116.8,108.67 -189.85,164.46 -224.63,171.55 -572.67,663.61 -664.35,730.77 31.96,-384.06 577.25,-1695.22 727.6,-2062.65 59.56,-145.59 281.05,-518.67 291.07,-639.01 374.35,0 631.57,-155.18 825.09,-348.58 202.87,-202.75 309.34,-480.87 444.54,-751.28 137.25,-274.51 261.35,-522.69 398.61,-797.21 235.05,-470.11 457.95,-863.38 239.48,-1383.94 -96.17,-229.14 -34.26,-204.63 100.41,-446.35 111.61,-200.36 184.2,-411.19 184.2,-657.3 0,-793.93 -695.58,-559.51 -1000.03,-180.68 -149.53,186.09 -240.32,403.37 -372.95,601.42 -731.36,0 -952.22,575.77 -1232.72,1136.78 -137.26,274.51 -261.35,522.69 -398.61,797.21 -256.54,513.08 -441.98,826.73 -196.92,1380.59 52.64,118.97 -76.51,272.77 -135.52,390.72l-374.22 843.73c-119.67,284.88 -228.52,567.84 -327.7,868.13l-222.49 685.45c-14.2,49.9 -22.8,73.16 -37.03,117.98l-21.7 66.89c-1.83,4.8 -4.74,11.43 -6.46,15.67l-14.03 -2693.54c168.54,-45.01 360.55,-298.96 436.08,-449.73 109.61,-218.82 139.68,-449.81 139.68,-768.24l0 -1395.12c0,-302.23 -29.76,-554.09 -132.16,-753.62 -100.83,-196.44 -249.58,-361.68 -443.6,-464.34 0,-371.02 -2.33,-611.58 -96.59,-899.93 -102.29,-312.95 -173.29,-583.77 -523.46,-583.77 -244.13,0 -361.68,362.38 -429.44,567.07 -98.6,297.84 -102.04,532.37 -102.04,916.63 -457.24,241.94 -575.76,693.28 -575.76,1217.96l0 1395.12c0,311.52 29.26,544.01 132.33,753.46 76.28,155.03 267.59,417.55 443.43,464.51l0 2723.8c-2.97,-4.67 -6.14,-18.12 -7.13,-15 -14.26,44.83 -11.25,-25.26 -13.36,-30.93l-196.07 -623.3c-27.1,-93.16 -48.6,-136.03 -79.76,-230.27 -217.3,-657.35 -485.5,-1295.05 -796.25,-1905.54 -123.67,-242.96 -22.93,-188.74 35.03,-422.69 113.43,-457.8 -95.01,-804.67 -271.14,-1156.93 -157.63,-315.26 -638.24,-1366.87 -824.6,-1567.04 -200.07,-214.91 -428.66,-381.71 -836.26,-381.71 -23.8,-102.17 -281.38,-515.11 -350.71,-601.51 -246.76,-307.56 -1000.12,-727.32 -1000.12,291.49 0,130.66 51.36,276.45 91.07,373.96 154.88,380.23 316.41,346.78 197.28,600.24 -66.73,141.98 -89.05,352.16 -89.05,531.64 0,310.18 203.28,628.02 317.4,856.27 175.63,351.24 608.1,1321.82 839.42,1552.22 198.11,197.33 452.29,359.61 836.21,359.61l572.45 1309.85 354.86 1040.27c34.49,107.82 49.77,273.25 113.5,373.69 -32.68,45.75 -31.26,-14.91 -160.09,-172.09 -358.78,-437.74 -760.78,-801.53 -1230.55,-1116.8 -450.65,-302.45 -1276.83,-659.85 -2019.66,-659.85zm8547.88 3565.31l-863.65 0c50.72,-217.66 633.91,-991.77 838.21,-1154.82 192.29,-153.48 345.34,-296.47 578.77,-417.75 183.21,-95.19 503.21,-244.64 753.22,-265.44l-426.31 348.75c-297.45,299.2 -470.17,488.31 -673.86,898.42 -54.81,110.35 -203.43,458.68 -206.38,590.84zm-8215.71 -1838.01c315.41,26.24 787.85,256.87 1037.7,446 46.94,35.53 94.07,67.22 139.41,104.17 263.94,215.01 197.08,180.79 378.38,374.55 148.26,158.42 569.34,718.63 614.7,913.29l-863.65 0c-6.04,-271.27 -330.07,-838.92 -502.79,-1069.49 -125.73,-167.84 -221.75,-263.58 -366.39,-408.69 -80.5,-80.77 -123.04,-115.72 -210.78,-187.82l-164.45 -123.43c-3.79,-2.74 -9.28,-6.4 -12.98,-9.15l-49.15 -39.43zm6909.17 1838.01l-907.94 0c48.19,-206.82 474.17,-944.88 580.14,-1102.86 297.64,-443.75 668.28,-881.9 1089.84,-1213.22l376.67 -265.54c97.6,-59.81 171.3,-93.47 268.94,-151.81 267.46,-159.78 889.73,-379.33 1271.87,-411.13l-812.83 626.59 -348.37 382.4c-266.6,343.24 -379.87,587.69 -626.99,834.56 -444.96,444.51 -611.41,772.01 -891.33,1301.01zm-6975.6 -3144.56c168.61,0 554.66,106.85 689.62,151.88 481.86,160.81 957.87,438.39 1341.17,762.58 42.03,35.56 59.57,62.26 101.65,97.65l220.89 199.87c49.91,51.87 54.63,71.42 99.37,122.06 369.55,418.27 603.79,725.63 861.64,1242.14l273.11 568.38 -907.93 0c-194.08,-366.77 -267.58,-549.52 -540.82,-898.6 -112.54,-143.78 -212.54,-264.66 -339.43,-391.33 -292.28,-291.76 -324.1,-448.11 -628.46,-833.12 -63.31,-80.08 -106.25,-113.07 -167.77,-186.54 -201.96,-241.22 -520.77,-507.39 -781.52,-680.03l-221.52 -154.94zm5646.91 3144.56l-243.59 0c45.73,-549.57 403.17,-1964.53 561.7,-2450 127.31,-389.9 255.7,-733.19 403.05,-1102.79l474.66 -1053.32c96.53,64.64 175.81,145.89 310.03,177.15 -5.87,70.45 -386.7,877.53 -449.27,1034.43 -255.76,641.27 -374.93,1016.04 -556.6,1657.88l-275.17 1208.54c-54.12,168.42 -184.35,354.44 -224.81,528.11zm-3144.56 -4428.96c134.23,-31.26 213.5,-112.51 310.03,-177.15 42.66,88.89 71.06,164.41 118.11,258.35 570.72,1139.57 959.64,2427.68 1208.51,3685.48 39.14,197.85 95.77,457.73 112.79,662.28l-243.59 0c-15.65,-67.14 -71.31,-179.52 -103.16,-251.16 -191.99,-431.9 -86.19,-162.74 -180.06,-572.86 -23.93,-104.52 -44.71,-216.56 -66.68,-309.78 -49.07,-208.14 -86.67,-385.27 -145.12,-585.66l-354.88 -1128.82c-35.37,-108.03 -65.17,-179.92 -102.55,-273.91l-324.32 -782.92c-44.15,-91.23 -76.63,-174.45 -118.02,-258.44 -42.97,-87.2 -96.54,-152.23 -111.06,-265.41zm1572.28 -1262.25l0 -1860.16c0,-404.83 343.35,-752.93 752.93,-752.93 407.34,0 752.92,347.79 752.92,752.93l0 1860.16c0,1025.85 -1505.85,1032.76 -1505.85,0zm-3587.45 -1461.55c0,-776.43 960.37,-1072.4 1391.3,-416.93l335.99 660.52c108.88,217.76 212.78,425.55 324.79,649.58 169.97,339.94 423.05,706.28 229.66,1100.69 -225.43,459.74 -759.41,551.87 -1124.34,281.18 -166.54,-123.54 -191.38,-210.11 -286.37,-400.12l-686.17 -1373.3c-74.16,-145.66 -184.86,-297.69 -184.86,-501.62zm7130.62 2413.77c-320.89,0 -583.01,-113.36 -716.93,-390.3 -207.42,-428.92 12.94,-726.23 207.6,-1115.54 110.73,-221.45 221.44,-442.89 332.18,-664.34l335.79 -660.72c432.84,-665.72 1391.49,-316.09 1391.49,394.98 0,273.86 -442.59,1040.2 -612.66,1380.36 -231.95,463.87 -410.85,1055.56 -937.47,1055.56zm1505.85 -3321.71c-93.71,-62.75 -190.8,-165.39 -332.17,-177.16 208.22,-393.52 222,-444.59 553.62,-620.06 0,354.05 23.24,323.56 -132.61,620.32 -33.43,63.66 -70.52,98.26 -88.84,176.9zm-8813.63 -797.22c331.57,175.45 343.18,222.36 553.62,620.06 -120.63,10.04 -249.37,121.71 -332.17,177.16l-170.2 -339.12c-72.39,-150.39 -51.25,-252.78 -51.25,-458.1zm4340.38 177.17c0,-627.74 50.89,-438.88 155.01,-885.8l44.29 0c104.12,446.92 155.02,258.06 155.02,885.8 -87.41,0 -127.15,-15.68 -177.16,-15.68 -50.01,0 -89.75,15.68 -177.16,15.68z"/>
 </g>
</svg>
