<?xml version="1.0" encoding="UTF-8"?>
<!DOCTYPE svg PUBLIC "-//W3C//DTD SVG 1.1//EN" "http://www.w3.org/Graphics/SVG/1.1/DTD/svg11.dtd">
<!-- Creator: CorelDRAW 2020 (64-Bit Evaluation Version) -->
<svg xmlns="http://www.w3.org/2000/svg" xml:space="preserve" width="200mm" height="200mm" version="1.1" style="shape-rendering:geometricPrecision; text-rendering:geometricPrecision; image-rendering:optimizeQuality; fill-rule:evenodd; clip-rule:evenodd"
viewBox="0 0 20000 20000"
 xmlns:xlink="http://www.w3.org/1999/xlink"
 xmlns:xodm="http://www.corel.com/coreldraw/odm/2003">
 <defs>
  <style type="text/css">
   <![CDATA[
    .fil1 {fill:black}
    .fil0 {fill:white}
   ]]>
  </style>
 </defs>
 <g id="Layer_x0020_1">
  <metadata id="CorelCorpID_0Corel-Layer"/>
  <path class="fil0" d="M-33534.71 4376.59l2109.43 0 0 134.53 -2109.43 0 0 -134.53zm1011.67 -1200.01c82.31,6.85 3.79,6.85 86.1,0l0 1103.14 -86.1 0 0 -1103.14zm-1194.63 236.77c-58.68,0 -139.91,-4.49 -139.91,69.96 0,46.77 50.22,60.11 84.31,77.13 71.85,35.86 240.29,143.7 286.99,213.45 -17.62,-4.1 -23.58,-7.66 -39.87,-13.93 -59.25,-22.82 -331.43,-70.7 -331.43,30.08 0,90.08 117.39,48.32 267.76,200.4 79.9,80.8 146.53,173.52 173.5,289.28 -93.49,0 -215.25,-21.4 -215.25,107.63 0,75.72 -17.9,215.25 91.48,215.25l2120.19 0c109.38,0 91.49,-139.53 91.49,-215.25 0,-129.03 -121.77,-107.63 -215.25,-107.63 26.25,-112.66 93.11,-207.97 170.83,-286.57 151.67,-153.4 270.43,-114.63 270.43,-203.11 0,-74.97 -120.87,-59.2 -177.59,-59.2 -36.23,0 -75.59,8.14 -103.43,14.95 -18.04,4.42 -28.26,7.52 -46.01,13.18 -14.75,4.71 -25.76,10.61 -44.28,14.92 10.51,-15.69 23.81,-28.55 39.26,-41.46 77.26,-64.54 152.44,-124.49 244.15,-170.2 43.57,-21.72 87.9,-34.52 87.9,-89.69 0,-43.76 -46.46,-59.19 -91.48,-59.19 -221.21,0 -380.14,63.56 -520.3,146.97 -52.7,31.36 -96.72,66.78 -143.89,103.65 -19.53,15.27 -28.38,26.41 -46.13,39.97 -54.59,41.68 -139.16,161.25 -161.44,177.58 7.77,-93.33 140.27,-411.94 176.81,-501.23 14.47,-35.38 68.29,-126.04 70.73,-155.28 90.96,0 153.47,-37.71 200.49,-84.71 49.3,-49.26 75.17,-116.85 108.03,-182.56 33.35,-66.7 63.51,-127.01 96.86,-193.72 57.12,-114.24 111.28,-209.8 58.19,-336.3 -23.36,-55.68 -8.32,-49.72 24.4,-108.46 27.13,-48.69 44.76,-99.92 44.76,-159.73 0,-192.92 -169.02,-135.96 -243,-43.9 -36.34,45.22 -58.4,98.02 -90.63,146.14 -177.72,0 -231.39,139.91 -299.55,276.24 -33.36,66.71 -63.51,127.02 -96.87,193.72 -62.33,124.68 -107.4,200.9 -47.85,335.49 12.79,28.91 -18.59,66.28 -32.93,94.94l-90.94 205.03c-29.07,69.23 -55.53,137.99 -79.63,210.96l-54.06 166.56c-3.45,12.13 -5.54,17.78 -9,28.67l-5.27 16.26c-0.45,1.16 -1.15,2.77 -1.57,3.8l-3.41 -654.53c40.95,-10.94 87.61,-72.65 105.97,-109.28 26.63,-53.18 33.94,-109.31 33.94,-186.69l0 -339.01c0,-73.44 -7.23,-134.65 -32.12,-183.13 -24.5,-47.74 -60.64,-87.89 -107.79,-112.84 0,-90.16 -0.57,-148.61 -23.47,-218.68 -24.86,-76.05 -42.11,-141.86 -127.2,-141.86 -59.33,0 -87.89,88.06 -104.36,137.8 -23.96,72.38 -24.79,129.37 -24.79,222.74 -111.11,58.79 -139.91,168.47 -139.91,295.97l0 339.01c0,75.7 7.11,132.2 32.15,183.1 18.54,37.67 65.03,101.46 107.76,112.87l0 661.89c-0.72,-1.14 -1.5,-4.41 -1.74,-3.65 -3.46,10.9 -2.73,-6.14 -3.24,-7.51l-47.65 -151.47c-6.58,-22.63 -11.81,-33.05 -19.38,-55.95 -52.8,-159.74 -117.98,-314.7 -193.49,-463.05 -30.05,-59.04 -5.57,-45.86 8.51,-102.71 27.57,-111.25 -23.08,-195.54 -65.88,-281.14 -38.31,-76.61 -155.1,-332.15 -200.38,-380.79 -48.62,-52.22 -104.17,-92.76 -203.21,-92.76 -5.79,-24.82 -68.38,-125.17 -85.23,-146.16 -59.96,-74.74 -243.03,-176.74 -243.03,70.83 0,31.75 12.48,67.18 22.13,90.87 37.64,92.4 76.89,84.27 47.94,145.86 -16.21,34.5 -21.64,85.57 -21.64,129.19 0,75.37 49.4,152.61 77.13,208.07 42.68,85.35 147.77,321.21 203.98,377.19 48.14,47.95 109.91,87.39 203.2,87.39l139.11 318.29 86.23 252.79c8.38,26.2 12.09,66.4 27.58,90.81 -7.94,11.11 -7.6,-3.63 -38.9,-41.82 -87.19,-106.37 -184.87,-194.77 -299.03,-271.38 -109.51,-73.5 -310.27,-160.35 -490.78,-160.35zm2077.15 866.37l-209.87 0c12.32,-52.89 154.04,-241 203.68,-280.62 46.73,-37.29 83.92,-72.04 140.64,-101.51 44.52,-23.13 122.28,-59.45 183.04,-64.5l-103.6 84.74c-72.28,72.71 -114.25,118.66 -163.75,218.32 -13.31,26.82 -49.43,111.46 -50.14,143.57zm-1996.43 -446.63c76.64,6.37 191.45,62.42 252.16,108.37 11.41,8.64 22.86,16.34 33.88,25.32 64.14,52.25 47.89,43.93 91.95,91.01 36.02,38.5 138.35,174.63 149.37,221.93l-209.87 0c-1.47,-65.91 -80.21,-203.85 -122.18,-259.88 -30.55,-40.79 -53.88,-64.05 -89.03,-99.31 -19.56,-19.63 -29.9,-28.12 -51.22,-45.64l-39.96 -30c-0.92,-0.66 -2.26,-1.55 -3.16,-2.22l-11.94 -9.58zm1678.93 446.63l-220.62 0c11.7,-50.25 115.22,-229.6 140.97,-267.99 72.33,-107.83 162.39,-214.3 264.83,-294.82l91.53 -64.52c23.72,-14.53 41.63,-22.71 65.35,-36.89 65,-38.83 216.21,-92.18 309.07,-99.91l-197.52 152.27 -84.65 92.92c-64.79,83.41 -92.31,142.81 -152.36,202.8 -108.13,108.01 -148.58,187.6 -216.6,316.14zm-1695.07 -764.13c40.97,0 134.78,25.97 167.57,36.91 117.1,39.08 232.77,106.53 325.91,185.31 10.22,8.64 14.48,15.13 24.7,23.73l53.68 48.57c12.13,12.6 13.27,17.35 24.15,29.66 89.8,101.64 146.72,176.33 209.37,301.84l66.37 138.11 -220.63 0c-47.16,-89.12 -65.02,-133.53 -131.42,-218.36 -27.34,-34.93 -51.64,-64.31 -82.48,-95.09 -71.02,-70.9 -78.76,-108.89 -152.71,-202.45 -15.39,-19.46 -25.82,-27.47 -40.77,-45.33 -49.08,-58.61 -126.55,-123.29 -189.91,-165.25l-53.83 -37.65zm1372.2 764.13l-59.19 0c11.11,-133.54 97.97,-477.38 136.49,-595.35 30.94,-94.74 62.14,-178.16 97.94,-267.98l115.35 -255.95c23.45,15.7 42.72,35.45 75.33,43.04 -1.42,17.12 -93.96,213.24 -109.17,251.37 -62.15,155.83 -91.11,246.9 -135.25,402.87l-66.87 293.67c-13.15,40.93 -44.8,86.13 -54.63,128.33zm-764.13 -1076.24c32.62,-7.59 51.88,-27.34 75.34,-43.04 10.36,21.6 17.27,39.95 28.7,62.78 138.68,276.91 233.19,589.92 293.67,895.57 9.51,48.08 23.27,111.23 27.41,160.93l-59.2 0c-3.8,-16.31 -17.33,-43.62 -25.07,-61.03 -46.65,-104.95 -20.94,-39.54 -43.75,-139.2 -5.81,-25.4 -10.86,-52.63 -16.2,-75.28 -11.93,-50.58 -21.06,-93.62 -35.27,-142.31l-86.23 -274.31c-8.6,-26.25 -15.84,-43.72 -24.92,-66.56l-78.81 -190.25c-10.73,-22.17 -18.62,-42.39 -28.68,-62.8 -10.44,-21.19 -23.46,-36.99 -26.99,-64.5zm382.07 -306.72l0 -452.03c0,-98.37 83.43,-182.96 182.96,-182.96 98.98,0 182.96,84.52 182.96,182.96l0 452.03c0,249.28 -365.92,250.96 -365.92,0zm-871.76 -355.16c0,-188.68 233.37,-260.59 338.09,-101.32l81.65 160.51c26.45,52.92 51.7,103.41 78.92,157.85 41.3,82.6 102.8,171.63 55.81,267.47 -54.78,111.71 -184.54,134.1 -273.22,68.32 -40.47,-30.01 -46.5,-51.05 -69.59,-97.22l-166.74 -333.72c-18.02,-35.39 -44.92,-72.34 -44.92,-121.89zm1732.75 586.55c-77.98,0 -141.67,-27.55 -174.22,-94.85 -50.4,-104.22 3.15,-176.47 50.45,-271.07 26.91,-53.82 53.81,-107.63 80.72,-161.44l81.6 -160.56c105.18,-161.76 338.13,-76.8 338.13,95.99 0,66.54 -107.55,252.77 -148.88,335.42 -56.36,112.73 -99.83,256.51 -227.8,256.51zm365.92 -807.18c-22.77,-15.25 -46.36,-40.19 -80.72,-43.05 50.6,-95.63 53.95,-108.04 134.53,-150.68 0,86.04 5.65,78.63 -32.22,150.74 -8.12,15.47 -17.14,23.88 -21.59,42.99zm-2141.72 -193.73c80.57,42.64 83.4,54.04 134.53,150.68 -29.31,2.44 -60.59,29.57 -80.72,43.05l-41.35 -82.41c-17.59,-36.54 -12.46,-61.43 -12.46,-111.32zm1054.72 43.05c0,-152.54 12.37,-106.64 37.67,-215.24l10.76 0c25.3,108.6 37.67,62.7 37.67,215.24 -21.24,0 -30.9,-3.8 -43.05,-3.8 -12.15,0 -21.81,3.8 -43.05,3.8z"/>
  <path class="fil1" d="M4499.71 14016c0,94.14 54.88,167.39 98.12,230.9 667.03,979.78 2748.48,1252.79 3806.84,1252.79 769.22,0 1175.38,14.49 1964.66,-98.14 646.49,-92.26 1021.99,-184.87 1590.92,-417.45 255.51,-104.46 623.22,-334.67 816.51,-530.26 77.81,-78.75 262.36,-298.73 262.36,-415.69 0,-486.69 -276.97,-1334.18 -508,-1734.44 -169.55,-293.74 -291.46,-367.01 -571.57,-539.46 -91.45,-56.31 -1621.56,-948.08 -1758.31,-999.71 -162.71,-61.43 -307.51,174.21 -711.15,341.41 -127.98,53 -318.89,78.59 -394.17,168.94 -36.65,44.01 -298.38,753.98 -305.05,836.67 -76.09,-57.54 -269.51,-694.22 -320.27,-798.81 -70.62,-145.51 -156.73,-106.77 -357.61,-184.53 -873.67,-338.14 -401.98,-554.7 -1081.22,-190.04l-725.63 402.6c-115.08,72.21 -227.31,126.93 -343.28,199.32l-354.22 210.16c-281.26,173.15 -408.39,235.16 -579.54,531.23 -227.35,393.3 -338.95,803.84 -443.82,1247.06 -26.68,112.76 -85.57,364.77 -85.57,487.45zm5964.72 -9389.32c162.07,38.98 434.39,259.07 567.18,366.83 165.78,134.5 70.42,123.32 355.49,120.28 1122.73,-11.93 2395.59,442.45 3089.57,1395.16 570.18,782.75 563.59,1717.4 3.36,2505.85l-255.06 312.52c-168.1,179.16 -118.79,88.24 -159.53,388.95l-146.63 1000.18c-23.15,140.39 -64.37,360.36 -64.37,509.34l-1303.89 -914.51c-58.58,-36.18 -58.42,-30.44 -151.16,-13.99 -700.87,124.26 -895.89,133.34 -1593.47,65.32 -150.23,-14.65 -158.6,-5.73 -229.95,70.36 -52.6,56.09 -111.87,91.07 -133,172.76l371.62 192.21c451.86,261.01 277.8,206.39 829.91,206.39l608.08 -60.73c186.09,-33.6 156.66,11.52 434.65,202.48l1093.78 775.53c154.44,116.2 367.25,273.8 516.38,49.22 78.89,-118.81 140.38,-721.97 164.26,-893.41 54.83,-393.79 129.8,-839.7 179.77,-1231.71 28.29,-221.96 22.45,-87.81 264.12,-413.88 54.21,-73.13 93.67,-118.15 146.33,-203.29 272.07,-439.9 415.32,-914 433.21,-1384.79l0 -200.75c-24.84,-656.19 -294.17,-1295.42 -799.22,-1814.98 -143.1,-147.2 -288.09,-292.35 -458.05,-413.03 -433.1,-307.52 -625.03,-419.84 -1126.67,-608.73 -798.27,-300.59 -1616.61,-344.89 -2459.19,-239.94 -78.47,9.77 -135.57,1.26 -177.52,60.36zm-5149.39 2878.81l0 1594.41c0,456.55 581.59,354.31 879.68,354.31 167.75,0 343.29,-146.92 343.29,-310.02l0 -1660.85c0,-91.23 -54.29,-155.94 -103.09,-205.14 -75.78,-76.39 -61.82,-53.7 -45.93,-213.01 15.43,-154.7 57.16,-374.46 98.43,-519.85 305.47,-1076.49 1050.64,-1453.62 2282,-1453.62 484.59,0 997.72,62.53 1409.23,272.81 215.02,109.86 308.66,203.05 473.96,374.47 319.34,331.17 482.56,1038.17 519.86,1500.75 -68.46,18.87 -80.01,38.14 -115.43,102.31 -25.94,47.02 -56.22,103.92 -56.22,163.43l0 1616.56c0,119.74 96.12,271.22 257.47,310.01 -158.75,142.43 -469.01,205.79 -667.86,240.77 -434.21,76.38 -759.52,69.26 -1198.79,69.26 -179.47,0 96.46,-177.15 -622.22,-177.15 -633.93,0 -458.19,642.19 -150.19,642.19l493.48 0c146.7,0 184.26,-132.87 257.47,-132.87 434.81,0 915.9,20.26 1356.24,-83.92 321.67,-76.1 269.24,-59.19 572.02,-184.67 93.87,-38.9 140.74,-82.48 226.26,-142.93 88.5,-62.56 136.07,-114.71 184.16,-208.53 148.52,0 260,11.99 356.52,-52.78 67.43,-45.25 158.42,-153.51 158.42,-257.24l0 -1660.85c0,-103.74 -90.99,-211.99 -158.42,-257.24 -101.25,-67.95 -222.96,-52.78 -377.98,-52.78 -7.05,-87.48 -31.56,-199.33 -41.07,-289.77l-116.69 -566.05c-103.66,-327.64 -241.44,-661.69 -469.8,-910.23 -220.32,-239.76 -249.42,-274.29 -556.39,-466.56 -496.03,-310.68 -1196.31,-380.46 -1819.86,-380.46 -1521.06,0 -2415.43,637.46 -2724.9,1992.99 -23.27,101.91 -51.41,225.51 -62.8,333.8 -27.79,264.46 -2.5,277.5 -106.81,288.36 -184.82,19.23 -188.62,-23.57 -324.05,64.16 -63.47,41.12 -149.99,165.23 -149.99,265.93zm1501.9 -22.15l0 1660.85c0,171.56 -121.61,237.95 -52.19,384.21 190.12,400.64 562.79,834.47 922.85,1086.64 90.79,63.57 220.09,140.15 310.64,188.73 82.6,44.31 251.5,117.75 350.6,147.46 468.73,140.57 779.75,69.1 1207.58,-153.28 156.66,-81.41 502.68,-307.13 586.17,-435.8 -193.41,0 -387.25,-1.68 -580.52,-1.26 -232.69,0.52 -217.93,134.12 -449.36,134.12 -272.78,0 -505.43,33.2 -715.15,-59.1 -107.82,-47.45 -228.47,-178.03 -278.69,-288.12 -72.06,-158.01 -67.73,-324.24 -6.75,-486.19 25.62,-68.03 64.68,-123.62 107.78,-176.65 200.76,-247.03 571.75,-185.75 914.27,-185.75 181.77,0 314.37,155.01 364.75,155.01 506.74,0 769.06,8.74 1265.89,-110.72 -18.88,-83.64 -42.91,-138.53 -42.91,-243.59 0,-303.88 -40.37,-1592.12 42.61,-1794.03 25.45,-61.91 75.4,-121.32 93.77,-170.47 69.54,-186.17 -170.93,-903.16 -390.47,-1183.53 -537.24,-686.1 -2071.84,-662.55 -2709.64,-442.32 -546.65,188.78 -859.04,523.45 -1010.27,1127.47 -14.13,56.47 -83.61,387.6 -78.18,446.68 7.71,83.95 147.22,190.7 147.22,399.64z"/>
 </g>
</svg>
